<svg xmlns="http://www.w3.org/2000/svg" width="805" height="600"><rect width="805" height="600" x="0" y="0" fill="#FFFFFF" id="background"/><g transform="translate(402.5,300)" id="viz"><path fill="#1f77b4" display="" d="M0.999992072947904,-191.3307201165001A191.33333333333334,191.33333333333334,0,1,1,-14.942949486238712,190.74892582946873L-7.056203177539179,96.40878819465438A96.66666666666667,96.66666666666667,0,1,0,0.9999920729479188,-96.66149419649216Z"><title>Marcia Wallace</title></path><path fill="#1f77b4" display="" d="M-16.935981305794115,190.58231025374377A191.33333333333334,191.33333333333334,0,0,1,-86.20885517223589,170.81123421583519L-43.112712610881516,86.52016213447581A96.66666666666667,96.66666666666667,0,0,0,-9.049234997094624,96.2421726189294Z"><title>Kelsey Grammer</title></path><path fill="#1f77b4" display="" d="M-87.98959021221319,169.9007841616137A191.33333333333334,191.33333333333334,0,0,1,-190.32848009258083,19.583516285195422L-96.10708612386006,10.386165857783627A96.66666666666667,96.66666666666667,0,0,0,-44.89344765085877,85.60971208025435Z"><title>Phil Hartman</title></path><path fill="#1f77b4" display="" d="M-190.522783519701,17.592993046937657A191.33333333333334,191.33333333333334,0,0,1,-190.67763843999512,-15.826643465717618L-96.37505759894397,-7.502847275846517A96.66666666666667,96.66666666666667,0,0,0,-96.30138955098023,8.395642619525905Z"><title>Jon Lovitz</title></path><path fill="#1f77b4" display="" d="M-190.50178973888208,-17.81888185962325A191.33333333333334,191.33333333333334,0,0,1,-188.39484503564776,-33.403993899513075L-95.2671995949905,-16.389177092602495A96.66666666666667,96.66666666666667,0,0,0,-96.19920889783093,-9.495085669752104Z"><title>Frank Welker</title></path><path fill="#1f77b4" display="" d="M-188.0353896421084,-35.37141058234624A191.33333333333334,191.33333333333334,0,0,1,-144.72707217804873,-125.14998610952507L-73.4426261122581,-62.853998394529455A96.66666666666667,96.66666666666667,0,0,0,-94.90774420145115,-18.356593775435627Z"><title>Joe Mantegna</title></path><path fill="#1f77b4" display="" d="M-143.41100577344764,-126.6559428826481A191.33333333333334,191.33333333333334,0,0,1,-116.3904858522568,-151.8607890389091L-59.195493293601416,-76.42210425113689A96.66666666666667,96.66666666666667,0,0,0,-72.12655970765701,-64.35995516765246Z"><title>Jackie Mason</title></path><path fill="#1f77b4" display="" d="M-114.79676654065862,-153.06909170781006A191.33333333333334,191.33333333333334,0,0,1,-89.56029984488967,-169.0780799989694L-45.68487386449033,-85.19000378231036A96.66666666666667,96.66666666666667,0,0,0,-57.60177398200321,-77.63040692003787Z"><title>Glenn Close</title></path><path fill="#1f77b4" display="" d="M-87.78807850440072,-170.00499321181607A191.33333333333334,191.33333333333334,0,0,1,-70.2431718952524,-177.97286660201456L-35.94847881824852,-89.73378023408121A96.66666666666667,96.66666666666667,0,0,0,-43.91265252400133,-86.11691699515703Z"><title>Jan Hooks</title></path><path fill="#1f77b4" display="" d="M-68.37903101875148,-178.69737704113362A191.33333333333334,191.33333333333334,0,0,1,-56.86776995383035,-182.68689385098943L-29.20315043630245,-92.14998887161698A96.66666666666667,96.66666666666667,0,0,0,-34.084337941747556,-90.45829067320028Z"><title>Stephen Hawking</title></path><path fill="#1f77b4" display="" d="M-54.95508531087985,-183.27133721048244A191.33333333333334,191.33333333333334,0,0,1,-29.254886833212108,-189.0835689340044L-15.269115050736136,-95.45312236910759A96.66666666666667,96.66666666666667,0,0,0,-27.290465793351917,-92.73443223111Z"><title>Jane Kaczmarek</title></path><path fill="#1f77b4" display="" d="M-27.27684796278598,-189.37903265583418A191.33333333333334,191.33333333333334,0,0,1,-15.169108296661811,-190.73107402289904L-8.156960357190792,-96.32190011713672A96.66666666666667,96.66666666666667,0,0,0,-13.291076180309972,-95.74858609093735Z"><title>Eric Idle</title></path><path fill="#1f77b4" display="" d="M-13.174618015330283,-190.8792128142679A191.33333333333334,191.33333333333334,0,0,1,-0.9999920729482248,-191.33072011650006L-0.9999920729480594,-96.66149419649214A96.66666666666667,96.66666666666667,0,0,0,-6.162470075859224,-96.4700389085056Z"><title>Scott Thompson</title></path><path fill="#1f77b4" display="" d="M0.9999920729479248,-287.99826391118063A288,288,0,1,1,-22.996172556193226,287.08043480489187L-15.109568634875187,192.74200038768348A193.33333333333334,193.33333333333334,0,1,0,0.9999920729479279,-193.33074715014118Z"><title>Edna Krabappel</title></path><path fill="#1f77b4" display="" d="M-24.989204375748656,286.9138192291669A288,288,0,0,1,-130.2146892534361,256.88155773163453L-87.11932475018715,172.59200744197054A193.33333333333334,193.33333333333334,0,0,0,-17.102600454430636,192.5753848119585Z"><title>Sideshow Bob</title></path><path fill="#1f77b4" display="" d="M-131.99542429341332,255.97110767741307A288,288,0,0,1,-231.29944120328688,171.59419716018152L-155.07438759148826,115.45437233341428A193.33333333333334,193.33333333333334,0,0,0,-88.9000597901644,171.68155738774905Z"><title>Lionel Hutz</title></path><path fill="#1f77b4" display="" d="M-232.48547378815246,169.98383593006213A288,288,0,0,1,-286.5387389106176,28.97500825733976L-192.3190460157037,19.777823878966725A193.33333333333334,193.33333333333334,0,0,0,-156.26042017635385,113.84401110329489Z"><title>Troy McClure</title></path><path fill="#1f77b4" display="" d="M-286.7330423377378,26.984485019081795A288,288,0,0,1,-287.99053863199697,2.3344503533502783L-193.32403814438487,1.8957988622731348A193.33333333333334,193.33333333333334,0,0,0,-192.5133494428239,17.787300640708825Z"><title>Artie Ziff</title></path><path fill="#1f77b4" display="" d="M-287.9998057603399,0.3344876776568327A288,288,0,0,1,-286.9707978570416,-24.326141849725285L-192.66991955554573,-16.002495937737717A193.33333333333334,193.33333333333334,0,0,0,-193.33330527272778,-0.10416381342032863Z"><title>Llewellyn Sinclair</title></path><path fill="#1f77b4" display="" d="M-286.7949491559286,-26.318380243630862A288,288,0,0,1,-283.4882680212433,-50.77796662249993L-190.36230390784812,-33.76345700122923A193.33333333333334,193.33333333333334,0,0,0,-192.49407085443272,-17.99473433164331Z"><title>Santa's Little Helper</title></path><path fill="#1f77b4" display="" d="M-283.12881262770395,-52.74538330533305A288,288,0,0,1,-217.51622034079924,-188.76094375864113L-146.23306124497296,-126.46608073591025A193.33333333333334,193.33333333333334,0,0,0,-190.00284851430874,-35.73087368406237Z"><title>Fat Tony</title></path><path fill="#1f77b4" display="" d="M-216.20015393619815,-190.26690053176412A288,288,0,0,1,-174.79277439185017,-228.89186534344063L-117.59881443205184,-153.45454252629222A193.33333333333334,193.33333333333334,0,0,0,-144.91699484037187,-127.97203750903327Z"><title>Rabbi Hyman Krustofsky</title></path><path fill="#1f77b4" display="" d="M-173.19905508025192,-230.10016801234167A288,288,0,0,1,-134.36186678760762,-254.73690104370272L-90.48723293450287,-170.85033934304843A193.33333333333334,193.33333333333334,0,0,0,-116.00509512045355,-154.66284519519323Z"><title>Mona Simpson</title></path><path fill="#1f77b4" display="" d="M-132.58964544711856,-255.6638142565494A288,288,0,0,1,-105.26177179114273,-268.07454075198825L-70.96769787080432,-179.837047453232A193.33333333333334,193.33333333333334,0,0,0,-88.7150115940138,-171.77725255589513Z"><title>Manjula Nahasapeemapetilon</title></path><path fill="#1f77b4" display="" d="M-103.3976309146417,-268.7990511911073A288,288,0,0,1,-85.11634590641573,-275.1348899349906L-57.45222584615177,-184.59961950963103A193.33333333333334,193.33333333333334,0,0,0,-69.10355699430326,-180.56155789235112Z"><title>Himself</title></path><path fill="#1f77b4" display="" d="M-83.20366126346512,-275.71933329448365A288,288,0,0,1,-43.53587617421798,-284.6904063816397L-29.550356890978588,-191.0616502215805A193.33333333333334,193.33333333333334,0,0,0,-55.539541203201146,-185.1840628691241Z"><title>Judge Constance Harm</title></path><path fill="#1f77b4" display="" d="M-41.55783730379174,-284.98587010346944A288,288,0,0,1,-22.329271606820885,-287.1330765159403L-15.317250264725324,-192.7256070741653A193.33333333333334,193.33333333333334,0,0,0,-27.57231802055233,-191.3571139434103Z"><title>Declan Desmond</title></path><path fill="#1f77b4" display="" d="M-20.334781325489242,-287.2812153073092A288,288,0,0,1,-0.9999920729484716,-287.99826391118063L-0.999992072948295,-193.33074715014118A193.33333333333334,193.33333333333334,0,0,0,-13.322759983393663,-192.87374586553418Z"><title>Grady</title></path></g><g id="labels" transform="translate(402.5,300)" text-anchor="middle"><text transform="rotate(90) translate(48.333333333333336,0) rotate(180)"><tspan x="0" y="4" style="font-family: Arial, sans-serif; font-size: 10px; fill: black; font-weight: normal; font-style: italic;"/></text><text transform="rotate(2.3893805309734404) translate(145,0) rotate(0)"><tspan x="0" y="4" style="font-family: Arial, sans-serif; font-size: 10px; fill: black; font-weight: normal; font-style: italic;">Marcia Wallace</tspan></text><text transform="rotate(105.92920353982296) translate(145,0) rotate(180)"><tspan x="0" y="4" style="font-family: Arial, sans-serif; font-size: 10px; fill: black; font-weight: normal; font-style: italic;">Kelsey Grammer</tspan></text><text transform="rotate(145.7522123893805) translate(145,0) rotate(180)"><tspan x="0" y="4" style="font-family: Arial, sans-serif; font-size: 10px; fill: black; font-weight: normal; font-style: italic;">Phil Hartman</tspan></text><text transform="rotate(179.73451327433622) translate(145,0) rotate(180)"><tspan x="0" y="4" style="font-family: Arial, sans-serif; font-size: 10px; fill: black; font-weight: normal; font-style: italic;">Jon Lovitz</tspan></text><text transform="rotate(187.69911504424778) translate(145,0) rotate(180)"><tspan x="0" y="4" style="font-family: Arial, sans-serif; font-size: 10px; fill: black; font-weight: normal; font-style: italic;">Frank Welker</tspan></text><text transform="rotate(205.75221238938053) translate(145,0) rotate(180)"><tspan x="0" y="4" style="font-family: Arial, sans-serif; font-size: 10px; fill: black; font-weight: normal; font-style: italic;">Joe Mantegna</tspan></text><text transform="rotate(226.99115044247782) translate(145,0) rotate(180)"><tspan x="0" y="4" style="font-family: Arial, sans-serif; font-size: 10px; fill: black; font-weight: normal; font-style: italic;">Jackie Mason</tspan></text><text transform="rotate(237.61061946902657) translate(145,0) rotate(180)"><tspan x="0" y="4" style="font-family: Arial, sans-serif; font-size: 10px; fill: black; font-weight: normal; font-style: italic;">Glenn Close</tspan></text><text transform="rotate(245.575221238938) translate(145,0) rotate(180)"><tspan x="0" y="4" style="font-family: Arial, sans-serif; font-size: 10px; fill: black; font-weight: normal; font-style: italic;">Jan Hooks</tspan></text><text transform="rotate(250.8849557522123) translate(145,0) rotate(180)"><tspan x="0" y="4" style="font-family: Arial, sans-serif; font-size: 10px; fill: black; font-weight: normal; font-style: italic;">Stephen Hawking</tspan></text><text transform="rotate(257.25663716814154) translate(145,0) rotate(180)"><tspan x="0" y="4" style="font-family: Arial, sans-serif; font-size: 10px; fill: black; font-weight: normal; font-style: italic;">Jane Kaczmarek</tspan></text><text transform="rotate(263.6283185840707) translate(145,0) rotate(180)"><tspan x="0" y="4" style="font-family: Arial, sans-serif; font-size: 10px; fill: black; font-weight: normal; font-style: italic;">Eric Idle</tspan></text><text transform="rotate(267.8761061946902) translate(145,0) rotate(180)"><tspan x="0" y="4" style="font-family: Arial, sans-serif; font-size: 10px; fill: black; font-weight: normal; font-style: italic;">Scott Thompson</tspan></text><text transform="rotate(2.3893805309734404) translate(241.66666666666669,0) rotate(0)"><tspan x="0" y="4" style="font-family: Arial, sans-serif; font-size: 10px; fill: black; font-weight: normal; font-style: italic;">Edna Krabappel</tspan></text><text transform="rotate(105.92920353982296) translate(241.66666666666669,0) rotate(180)"><tspan x="0" y="4" style="font-family: Arial, sans-serif; font-size: 10px; fill: black; font-weight: normal; font-style: italic;">Sideshow Bob</tspan></text><text transform="rotate(130.3539823008849) translate(241.66666666666669,0) rotate(180)"><tspan x="0" y="4" style="font-family: Arial, sans-serif; font-size: 10px; fill: black; font-weight: normal; font-style: italic;">Lionel Hutz</tspan></text><text transform="rotate(159.02654867256632) translate(241.66666666666669,0) rotate(180)"><tspan x="0" y="4" style="font-family: Arial, sans-serif; font-size: 10px; fill: black; font-weight: normal; font-style: italic;">Troy McClure</tspan></text><text transform="rotate(177.07964601769913) translate(241.66666666666669,0) rotate(180)"><tspan x="0" y="4" style="font-family: Arial, sans-serif; font-size: 10px; fill: black; font-weight: normal; font-style: italic;">Artie Ziff</tspan></text><text transform="rotate(182.38938053097337) translate(241.66666666666669,0) rotate(180)"><tspan x="0" y="4" style="font-family: Arial, sans-serif; font-size: 10px; fill: black; font-weight: normal; font-style: italic;">Llewellyn Sinclair</tspan></text><text transform="rotate(187.69911504424778) translate(241.66666666666669,0) rotate(180)"><tspan x="0" y="4" style="font-family: Arial, sans-serif; font-size: 10px; fill: black; font-weight: normal; font-style: italic;">Santa's Little Helper</tspan></text><text transform="rotate(205.75221238938053) translate(241.66666666666669,0) rotate(180)"><tspan x="0" y="4" style="font-family: Arial, sans-serif; font-size: 10px; fill: black; font-weight: normal; font-style: italic;">Fat Tony</tspan></text><text transform="rotate(226.99115044247782) translate(241.66666666666669,0) rotate(180)"><tspan x="0" y="4" style="font-family: Arial, sans-serif; font-size: 10px; fill: black; font-weight: normal; font-style: italic;">Rabbi Hyman Krustofsky</tspan></text><text transform="rotate(237.61061946902657) translate(241.66666666666669,0) rotate(180)"><tspan x="0" y="4" style="font-family: Arial, sans-serif; font-size: 10px; fill: black; font-weight: normal; font-style: italic;">Mona Simpson</tspan></text><text transform="rotate(245.575221238938) translate(241.66666666666669,0) rotate(180)"><tspan x="0" y="4" style="font-family: Arial, sans-serif; font-size: 10px; fill: black; font-weight: normal; font-style: italic;">Manjula Nahasapeemapetilon</tspan></text><text transform="rotate(250.8849557522123) translate(241.66666666666669,0) rotate(180)"><tspan x="0" y="4" style="font-family: Arial, sans-serif; font-size: 10px; fill: black; font-weight: normal; font-style: italic;">Himself</tspan></text><text transform="rotate(257.25663716814154) translate(241.66666666666669,0) rotate(180)"><tspan x="0" y="4" style="font-family: Arial, sans-serif; font-size: 10px; fill: black; font-weight: normal; font-style: italic;">Judge Constance Harm</tspan></text><text transform="rotate(263.6283185840707) translate(241.66666666666669,0) rotate(180)"><tspan x="0" y="4" style="font-family: Arial, sans-serif; font-size: 10px; fill: black; font-weight: normal; font-style: italic;">Declan Desmond</tspan></text><text transform="rotate(267.8761061946902) translate(241.66666666666669,0) rotate(180)"><tspan x="0" y="4" style="font-family: Arial, sans-serif; font-size: 10px; fill: black; font-weight: normal; font-style: italic;">Grady</tspan></text></g></svg>